<svg width="18" height="12" viewBox="0 0 18 12" fill="none" xmlns="http://www.w3.org/2000/svg">
<path fill-rule="evenodd" clip-rule="evenodd" d="M2 0C0.895431 0 0 0.895431 0 2V10C0 11.1046 0.89543 12 2 12H16C17.1046 12 18 11.1046 18 10V2C18 0.895431 17.1046 0 16 0H2ZM2 3C2 2.44772 2.44772 2 3 2H15C15.5523 2 16 2.44772 16 3C16 3.55228 15.5523 4 15 4H3C2.44772 4 2 3.55228 2 3ZM16 9C16 9.553 15.552 10 15 10H13C12.448 10 12 9.553 12 9C12 8.447 12.448 8 13 8H15C15.552 8 16 8.447 16 9Z" fill="#557CF1"/>
</svg>
