<svg width="18" height="12" viewBox="0 0 18 12" fill="none" xmlns="http://www.w3.org/2000/svg">
<path fill-rule="evenodd" clip-rule="evenodd" d="M15 10H13C12.447 10 12 9.552 12 9C12 8.448 12.447 8 13 8H15C15.553 8 16 8.448 16 9C16 9.552 15.553 10 15 10ZM11.769 3.64L6.769 9.64C6.571 9.876 6.287 10 5.999 10C5.808 10 5.615 9.945 5.445 9.832L2.445 7.832C1.985 7.526 1.861 6.905 2.168 6.445C2.473 5.985 3.094 5.86 3.555 6.168L5.807 7.669L10.231 2.36C10.585 1.936 11.215 1.877 11.641 2.232C12.064 2.585 12.122 3.216 11.769 3.64ZM15.5 0H2.5C1.121 0 0 1.122 0 2.5V9.5C0 10.878 1.121 12 2.5 12H15.5C16.879 12 18 10.878 18 9.5V2.5C18 1.122 16.879 0 15.5 0Z" fill="#557CF1"/>
</svg>
