<svg width="11" height="19" viewBox="0 0 11 19" fill="none" xmlns="http://www.w3.org/2000/svg">
<path fill-rule="evenodd" clip-rule="evenodd" d="M7 8H4C3.448 8 3 7.552 3 7V6C3 5.448 3.448 5 4 5H7C7.552 5 8 5.448 8 6C8 6.828 8.672 7.5 9.5 7.5C10.328 7.5 11 6.828 11 6C11 3.794 9.206 2 7 2V1.5C7 0.672 6.328 0 5.5 0C4.672 0 4 0.672 4 1.5V2C1.794 2 0 3.794 0 6V7C0 9.206 1.794 11 4 11H7C7.552 11 8 11.448 8 12V13C8 13.552 7.552 14 7 14H4C3.448 14 3 13.552 3 13C3 12.172 2.328 11.5 1.5 11.5C0.672 11.5 0 12.172 0 13C0 15.206 1.794 17 4 17V17.5C4 18.328 4.672 19 5.5 19C6.328 19 7 18.328 7 17.5V17C9.206 17 11 15.206 11 13V12C11 9.794 9.206 8 7 8Z" fill="#557CF1"/>
</svg>
