<svg width="590" height="111" viewBox="0 0 590 111" fill="none" xmlns="http://www.w3.org/2000/svg">
<path d="M0 6C0 2.68629 2.68629 0 6 0H584C587.314 0 590 2.68629 590 6V105C590 108.314 587.314 111 584 111H6.00001C2.6863 111 0 108.314 0 105V6Z" fill="#557CF1" fill-opacity="0.04"/>
<path d="M35.04 30.11H32.3L30.96 37H31.87L32.37 34.41H34.2C35.66 34.41 36.46 33.35 36.67 32.26C36.88 31.19 36.5 30.11 35.04 30.11ZM34.31 33.56H32.54L33.04 30.95H34.86C35.68 30.95 35.89 31.62 35.76 32.26C35.63 32.92 35.17 33.56 34.31 33.56ZM38.768 37.1C40.098 37.1 41.408 36.13 41.698 34.65C41.988 33.17 41.048 32.23 39.718 32.23C38.388 32.23 37.098 33.17 36.808 34.65C36.518 36.13 37.438 37.1 38.768 37.1ZM38.928 36.28C38.078 36.28 37.498 35.62 37.688 34.65C37.878 33.69 38.708 33.05 39.558 33.05C40.418 33.05 41.018 33.69 40.828 34.65C40.638 35.62 39.788 36.28 38.928 36.28ZM49.2311 32.33L47.3911 35.65L46.8411 32.33H45.9911L44.1511 35.65L43.6111 32.33H42.6711L43.5411 37H44.2611L46.1711 33.53L46.7911 37H47.5211L50.1711 32.33H49.2311ZM54.9459 34.65C55.2359 33.17 54.4259 32.23 53.0959 32.23C51.7659 32.23 50.5159 33.17 50.2259 34.65C49.9359 36.13 50.8159 37.1 52.1459 37.1C53.0459 37.1 53.9659 36.68 54.5459 35.87L53.8359 35.57C53.4859 36.04 52.9059 36.28 52.3359 36.28C51.5359 36.28 51.0259 35.87 51.0459 35.04H54.8459C54.8859 34.91 54.9259 34.78 54.9459 34.65ZM51.2059 34.29C51.5059 33.45 52.1459 33.05 52.9359 33.05C53.7059 33.05 54.1859 33.49 54.1459 34.29H51.2059ZM58.7921 32.23C58.1721 32.23 57.6521 32.57 57.2521 33.39L57.4621 32.33H56.5821L55.6721 37H56.5521L56.8821 35.29C57.1221 34.06 57.6821 33.07 58.6121 33.07C58.7921 33.07 59.0321 33.11 59.2621 33.23L59.5621 32.41C59.4421 32.32 59.1221 32.23 58.7921 32.23ZM64.2526 34.65C64.5426 33.17 63.7326 32.23 62.4026 32.23C61.0726 32.23 59.8226 33.17 59.5326 34.65C59.2426 36.13 60.1226 37.1 61.4526 37.1C62.3526 37.1 63.2726 36.68 63.8526 35.87L63.1426 35.57C62.7926 36.04 62.2126 36.28 61.6426 36.28C60.8426 36.28 60.3326 35.87 60.3526 35.04H64.1526C64.1926 34.91 64.2326 34.78 64.2526 34.65ZM60.5126 34.29C60.8126 33.45 61.4526 33.05 62.2426 33.05C63.0126 33.05 63.4926 33.49 63.4526 34.29H60.5126ZM70.0688 29.78L69.4288 33.06C69.2288 32.51 68.6188 32.23 67.9188 32.23C66.6388 32.23 65.4088 33.18 65.1188 34.66C64.8288 36.13 65.6988 37.1 66.9788 37.1C67.6488 37.1 68.3888 36.8 68.7988 36.26L68.6688 37H69.5388L70.9388 29.78H70.0688ZM67.2088 36.28C66.3588 36.28 65.8188 35.58 65.9988 34.65C66.1788 33.71 66.9888 33.05 67.8388 33.05C68.6088 33.05 69.3188 33.64 69.1188 34.65C68.9188 35.65 68.0488 36.28 67.2088 36.28ZM77.062 32.23C76.362 32.23 75.642 32.51 75.222 33.06L75.862 29.78H74.992L73.592 37H74.462L74.602 36.26C74.812 36.8 75.422 37.1 76.092 37.1C77.372 37.1 78.622 36.13 78.912 34.66C79.202 33.18 78.342 32.23 77.062 32.23ZM76.182 36.28C75.352 36.28 74.712 35.65 74.912 34.65C75.112 33.64 76.042 33.05 76.802 33.05C77.662 33.05 78.212 33.71 78.032 34.65C77.852 35.58 77.042 36.28 76.182 36.28ZM83.6491 32.33L81.5491 35.77L80.8091 32.33H79.8691L80.8491 36.87L79.4091 39.27H80.3291L84.5891 32.33H83.6491Z" fill="#294F68"/>
<g clip-path="url(#clip0)">
<path d="M30 75.5255V73.0143C30 69.3981 31.8916 67.5398 35.6078 67.5398C39.2068 67.5398 41.0481 69.2307 41.0983 72.7297H37.6332C37.5663 71.2564 37.0474 70.4863 35.658 70.4863C34.2686 70.4863 33.6325 71.2564 33.6325 73.0143V75.5088C33.6325 77.2499 34.2686 78.02 35.658 78.02C37.0474 78.02 37.583 77.2499 37.6332 75.7766H41.0983C41.0481 79.2756 39.2068 80.9665 35.6078 80.9665C31.8916 81 30 79.1417 30 75.5255Z" fill="#292AFB"/>
<path d="M54.4063 72.1772V80.6987H50.7571V72.4953C50.7571 71.2899 50.3218 70.704 49.3342 70.704C48.38 70.704 47.61 71.2732 47.0743 72.3949V80.6987H43.4251V62.7183H47.0743V68.8791C47.9615 67.9751 49.0161 67.5566 50.372 67.5566C53.0169 67.5566 54.4063 69.1303 54.4063 72.1772Z" fill="#292AFB"/>
<path d="M60.6334 75.6595C60.6334 77.3336 61.303 78.1539 62.8765 78.1539C64.1152 78.1539 64.8183 77.6684 64.902 76.7811H68.3671C68.2164 79.5602 66.3248 81.0167 62.8598 81.0167C58.9762 81.0167 57.0009 79.1752 57.0009 75.5423V73.031C57.0009 69.4651 58.9762 67.5566 62.7091 67.5566C66.4755 67.5566 68.4508 69.4986 68.4508 73.0645V75.4083H60.6334V75.6595ZM60.6334 72.8469H64.9857C64.9857 71.1225 64.3496 70.4026 62.8263 70.4026C61.2695 70.4026 60.6334 71.1225 60.6334 72.8469Z" fill="#292AFB"/>
<path d="M70.6269 75.5255V73.0143C70.6269 69.3981 72.5185 67.5398 76.2347 67.5398C79.8337 67.5398 81.675 69.2307 81.7252 72.7297H78.2601C78.1932 71.2564 77.6743 70.4863 76.2849 70.4863C74.8955 70.4863 74.2594 71.2564 74.2594 73.0143V75.5088C74.2594 77.2499 74.8955 78.02 76.2849 78.02C77.6743 78.02 78.2099 77.2499 78.2601 75.7766H81.7252C81.675 79.2756 79.8337 80.9665 76.2347 80.9665C72.5185 81 70.6269 79.1417 70.6269 75.5255Z" fill="#292AFB"/>
<path d="M89.0906 75.7264L87.6845 77.3838V80.7154H84.0353V62.7183H87.6845V72.8636L91.9196 67.8412H96.1715L91.6685 73.0813L96.2552 80.6819H92.0201L89.0906 75.7264Z" fill="#292AFB"/>
<path d="M69.2879 45.1564C71.3301 45.1564 73.3723 45.3573 75.3811 45.7591V58.4994C75.3811 62.7517 72.8367 64.7607 67.7646 64.7607C66.1409 64.7775 64.5339 64.5431 62.9938 64.0576V61.2283C64.5339 61.7138 66.1409 61.9481 67.7646 61.9314C70.4094 61.9314 71.7319 60.8265 71.7319 58.5998C70.6438 59.0686 69.472 59.3197 68.2835 59.303C64.0149 59.303 61.889 56.9759 61.889 52.3385C61.8723 47.5839 64.3162 45.1564 69.2879 45.1564ZM133.785 45.1564C138.556 45.1564 141 47.5839 141 52.439C141 57.294 138.556 59.6211 133.785 59.6211C129.015 59.6211 126.571 57.1935 126.571 52.439C126.671 47.5839 129.015 45.1564 133.785 45.1564ZM97.3267 45.2568L97.7284 47.383C99.1513 45.96 100.675 45.2568 102.499 45.2568C105.948 45.2568 107.672 47.0817 107.672 50.6141V59.7048H104.022V50.6141C104.022 48.9902 103.219 48.1866 101.696 48.1866C100.474 48.1866 99.3521 48.6889 98.2473 49.5929V59.6043H94.5981V45.2568H97.3267ZM38.8219 40C42.8896 40 44.8146 41.8248 44.8146 45.5582C44.8146 49.4924 42.0694 51.92 36.5788 52.8407L36.0766 49.5092C39.4245 48.9065 41.0482 47.5839 41.0482 45.5749C41.0482 43.951 40.228 43.1474 38.6043 43.1474H33.6326V59.5206H29.9834L30.0001 40H38.8219ZM123.926 40V58.7003C121.8 59.2528 119.624 59.5708 117.431 59.6043C112.761 59.6043 110.417 57.0764 110.417 52.1209C110.417 47.4667 112.761 45.2401 117.33 45.2401C118.352 45.2234 119.373 45.4745 120.277 45.9432V40H123.926ZM52.632 45.2568C56.9006 45.2568 59.0265 46.8808 59.0265 49.9947V59.6043H56.8839L55.5614 58.2817C54.3395 59.1188 52.8831 59.5876 51.3933 59.6043C47.8445 59.6043 46.1036 58.0808 46.1036 55.1511C46.1036 52.3218 48.2463 50.8987 52.3977 50.8987C53.3853 50.8987 54.3729 50.9992 55.3438 51.2001V50.0784C55.3438 48.7726 54.4399 48.1531 52.4981 48.1531C50.7237 48.1866 48.9493 48.421 47.2251 48.8563V46.0269C48.9828 45.4912 50.8074 45.2234 52.632 45.2568ZM84.6381 45.2568C88.9067 45.2568 91.0326 46.8808 91.0326 49.9947V59.6043H88.8899L87.5675 58.2817C86.3455 59.1188 84.8892 59.5876 83.3993 59.6043C79.8506 59.6043 78.1264 58.0808 78.1264 55.1511C78.1264 52.3218 80.2523 50.8987 84.4205 50.8987C85.4081 50.8987 86.3957 50.9992 87.3666 51.2001V50.0784C87.3666 48.7726 86.4459 48.1531 84.5209 48.1531C82.7465 48.1866 80.9721 48.421 79.2479 48.8563V46.0604C80.9888 45.4912 82.7967 45.2234 84.6381 45.2568ZM52.5316 53.2425C50.8074 53.2425 49.8867 53.8452 49.8867 55.0674C49.8867 56.3732 50.6065 56.9926 52.1298 56.9926C53.3351 56.9926 54.5069 56.6076 55.4778 55.8877V53.5439C54.5069 53.343 53.5192 53.2425 52.5316 53.2425ZM84.4205 53.2425C82.6963 53.2425 81.7756 53.8452 81.7756 55.0674C81.7756 56.3732 82.4954 56.9926 84.002 56.9926C85.2072 56.9926 86.3957 56.6076 87.3499 55.8877V53.5439C86.3957 53.343 85.4081 53.2425 84.4205 53.2425ZM133.785 47.9857C131.442 47.9857 130.237 49.4924 130.237 52.439C130.237 55.4859 131.459 56.9926 133.785 56.9926C136.112 56.9926 137.334 55.4859 137.334 52.439C137.334 49.3753 136.112 47.9857 133.785 47.9857ZM117.448 48.1866C115.221 48.1866 114.1 49.4924 114.1 52.0204C114.1 55.0506 115.322 56.5741 117.648 56.5741C118.586 56.5909 119.507 56.4569 120.394 56.1723V48.9902C119.49 48.4545 118.469 48.1866 117.431 48.1866H117.448ZM69.2042 48.1866C66.6598 48.1866 65.4545 49.5929 65.4545 52.3218C65.4545 54.9502 66.5761 56.3565 68.702 56.3565C69.7566 56.3397 70.7944 56.1053 71.7486 55.6533V48.5717C71.2129 48.2703 70.2923 48.1699 69.1875 48.1699H69.2042V48.1866Z" fill="#706F6F"/>
<path d="M108.592 64.7942C109.111 64.6938 109.412 64.8612 109.697 65.2295C110.132 65.8489 110.551 66.4181 110.936 67.0376C111.94 68.4606 112.911 69.9004 113.915 71.3234C113.999 71.4741 114.083 71.608 114.15 71.7587C114.267 72.1103 114.116 72.4618 113.832 72.6795C112.744 73.4663 111.605 74.2699 110.467 75.0735C107.856 76.9486 105.194 78.8236 102.599 80.6987C102.466 80.8326 102.265 80.9163 102.114 80.9498C101.712 81.0837 101.411 80.9163 101.11 80.481C99.9212 78.7064 98.6824 76.8983 97.4939 75.1405C97.2763 74.8056 97.0587 74.521 96.8411 74.1862C96.5565 73.8012 96.7406 73.3491 97.0252 73.1315C98.967 71.7085 100.859 70.3357 102.8 68.9126C104.541 67.6235 106.316 66.3847 108.057 65.0956C108.241 64.9616 108.442 64.8277 108.592 64.7942Z" fill="#E5FF00"/>
</g>
<path d="M292.704 49.854H285.634V50.722H288.7V59.5H289.624V50.722H292.704V49.854ZM298.319 52.962V54.222C297.829 53.34 296.821 52.822 295.715 52.822C293.881 52.822 292.397 54.236 292.397 56.224C292.397 58.212 293.895 59.64 295.715 59.64C296.807 59.64 297.829 59.122 298.319 58.226V59.5H299.215V52.962H298.319ZM295.785 58.786C294.413 58.786 293.293 57.666 293.293 56.21C293.293 54.768 294.413 53.676 295.785 53.676C297.087 53.676 298.319 54.67 298.319 56.252C298.319 57.764 297.143 58.786 295.785 58.786ZM304.412 52.822C303.39 52.822 302.69 53.452 302.368 54.558V52.962H301.458V59.5H302.368V57.036C302.368 55.426 302.844 53.69 304.398 53.69C304.636 53.69 304.944 53.732 305.28 53.872L305.448 53.018C305.196 52.892 304.776 52.822 304.412 52.822ZM307.254 51.184C307.646 51.184 307.954 50.918 307.954 50.554C307.954 50.176 307.646 49.91 307.254 49.91C306.89 49.91 306.568 50.176 306.568 50.554C306.568 50.918 306.89 51.184 307.254 51.184ZM304.734 62.678H305.434C307.142 62.678 307.702 61.488 307.702 59.892V52.962H306.806V59.892C306.82 60.872 306.554 61.824 305.364 61.824H304.734V62.678ZM316.052 56.21C316.052 54.138 314.694 52.822 312.832 52.822C310.984 52.822 309.5 54.138 309.5 56.21C309.5 58.282 310.984 59.64 312.832 59.64C314.064 59.64 315.184 59.052 315.758 58.002L314.988 57.666C314.554 58.38 313.756 58.786 312.86 58.786C311.544 58.786 310.564 58.002 310.41 56.602H316.038C316.052 56.476 316.052 56.336 316.052 56.21ZM310.424 55.832C310.592 54.432 311.544 53.676 312.832 53.676C314.106 53.676 315.044 54.474 315.17 55.832H310.424ZM320.528 52.962H319.03V50.358H318.148V52.962H316.958V53.732H318.148V59.5H319.03V53.732H320.528V52.962ZM327.235 52.962V54.222C326.745 53.34 325.737 52.822 324.631 52.822C322.797 52.822 321.313 54.236 321.313 56.224C321.313 58.212 322.811 59.64 324.631 59.64C325.723 59.64 326.745 59.122 327.235 58.226V59.5H328.131V52.962H327.235ZM324.701 58.786C323.329 58.786 322.209 57.666 322.209 56.21C322.209 54.768 323.329 53.676 324.701 53.676C326.003 53.676 327.235 54.67 327.235 56.252C327.235 57.764 326.059 58.786 324.701 58.786ZM332.222 59.64C333.58 59.64 334.63 58.898 334.63 57.736C334.63 56.98 334.238 56.21 332.964 55.902L331.998 55.664C331.522 55.552 330.99 55.286 330.99 54.67C330.99 54.054 331.508 53.62 332.264 53.62C332.908 53.62 333.482 54.012 333.524 54.6H334.392C334.35 53.424 333.342 52.822 332.25 52.822C331.004 52.822 330.094 53.592 330.094 54.656C330.094 55.748 330.836 56.224 331.76 56.448L332.698 56.672C333.37 56.84 333.734 57.19 333.734 57.722C333.734 58.38 333.16 58.842 332.222 58.842C331.27 58.842 330.766 58.282 330.668 57.736H329.842C329.954 58.982 331.088 59.64 332.222 59.64ZM345.514 52.962V54.222C345.024 53.34 344.016 52.822 342.91 52.822C341.076 52.822 339.592 54.236 339.592 56.224C339.592 58.212 341.09 59.64 342.91 59.64C344.002 59.64 345.024 59.122 345.514 58.226V59.5H346.41V52.962H345.514ZM342.98 58.786C341.608 58.786 340.488 57.666 340.488 56.21C340.488 54.768 341.608 53.676 342.98 53.676C344.282 53.676 345.514 54.67 345.514 56.252C345.514 57.764 344.338 58.786 342.98 58.786ZM351.663 59.626C352.601 59.626 353.427 59.29 354.015 58.73L353.455 58.128C353.007 58.534 352.391 58.772 351.691 58.772C350.263 58.772 349.101 57.75 349.101 56.224C349.101 54.684 350.263 53.676 351.691 53.676C352.391 53.676 353.007 53.928 353.455 54.334L354.015 53.718C353.427 53.172 352.601 52.822 351.663 52.822C349.801 52.822 348.205 54.152 348.205 56.224C348.205 58.296 349.801 59.626 351.663 59.626ZM361.579 56.21C361.579 54.138 360.221 52.822 358.359 52.822C356.511 52.822 355.027 54.138 355.027 56.21C355.027 58.282 356.511 59.64 358.359 59.64C359.591 59.64 360.711 59.052 361.285 58.002L360.515 57.666C360.081 58.38 359.283 58.786 358.387 58.786C357.071 58.786 356.091 58.002 355.937 56.602H361.565C361.579 56.476 361.579 56.336 361.579 56.21ZM355.951 55.832C356.119 54.432 357.071 53.676 358.359 53.676C359.633 53.676 360.571 54.474 360.697 55.832H355.951ZM366.823 52.822C365.731 52.822 364.695 53.354 364.219 54.25V52.962H363.323V62.678H364.219V58.226C364.709 59.122 365.717 59.64 366.823 59.64C368.657 59.64 370.141 58.226 370.141 56.238C370.141 54.25 368.657 52.822 366.823 52.822ZM366.753 58.786C365.451 58.786 364.219 57.792 364.219 56.21C364.219 54.698 365.395 53.676 366.753 53.676C368.139 53.676 369.259 54.796 369.259 56.252C369.259 57.694 368.139 58.786 366.753 58.786ZM374.641 52.962H373.143V50.358H372.261V52.962H371.071V53.732H372.261V59.5H373.143V53.732H374.641V52.962ZM381.348 52.962V54.222C380.858 53.34 379.85 52.822 378.744 52.822C376.91 52.822 375.426 54.236 375.426 56.224C375.426 58.212 376.924 59.64 378.744 59.64C379.836 59.64 380.858 59.122 381.348 58.226V59.5H382.244V52.962H381.348ZM378.814 58.786C377.442 58.786 376.322 57.666 376.322 56.21C376.322 54.768 377.442 53.676 378.814 53.676C380.116 53.676 381.348 54.67 381.348 56.252C381.348 57.764 380.172 58.786 378.814 58.786ZM389.961 49.28V54.222C389.471 53.34 388.463 52.822 387.357 52.822C385.523 52.822 384.039 54.236 384.039 56.224C384.039 58.212 385.537 59.64 387.357 59.64C388.449 59.64 389.471 59.122 389.961 58.226V59.5H390.857V49.28H389.961ZM387.427 58.786C386.055 58.786 384.935 57.666 384.935 56.21C384.935 54.768 386.055 53.676 387.427 53.676C388.729 53.676 389.961 54.67 389.961 56.252C389.961 57.764 388.785 58.786 387.427 58.786ZM398.574 52.962V54.222C398.084 53.34 397.076 52.822 395.97 52.822C394.136 52.822 392.652 54.236 392.652 56.224C392.652 58.212 394.15 59.64 395.97 59.64C397.062 59.64 398.084 59.122 398.574 58.226V59.5H399.47V52.962H398.574ZM396.04 58.786C394.668 58.786 393.548 57.666 393.548 56.21C393.548 54.768 394.668 53.676 396.04 53.676C397.342 53.676 398.574 54.67 398.574 56.252C398.574 57.764 397.398 58.786 396.04 58.786ZM403.562 59.64C404.92 59.64 405.97 58.898 405.97 57.736C405.97 56.98 405.578 56.21 404.304 55.902L403.338 55.664C402.862 55.552 402.33 55.286 402.33 54.67C402.33 54.054 402.848 53.62 403.604 53.62C404.248 53.62 404.822 54.012 404.864 54.6H405.732C405.69 53.424 404.682 52.822 403.59 52.822C402.344 52.822 401.434 53.592 401.434 54.656C401.434 55.748 402.176 56.224 403.1 56.448L404.038 56.672C404.71 56.84 405.074 57.19 405.074 57.722C405.074 58.38 404.5 58.842 403.562 58.842C402.61 58.842 402.106 58.282 402.008 57.736H401.182C401.294 58.982 402.428 59.64 403.562 59.64ZM408.304 54.152C408.682 54.152 409.004 53.872 409.004 53.494C409.004 53.102 408.682 52.822 408.304 52.822C407.912 52.822 407.59 53.102 407.59 53.494C407.59 53.872 407.912 54.152 408.304 54.152ZM408.304 59.64C408.682 59.64 409.004 59.36 409.004 58.982C409.004 58.59 408.682 58.31 408.304 58.31C407.912 58.31 407.59 58.59 407.59 58.982C407.59 59.36 407.912 59.64 408.304 59.64Z" fill="#7F95A4"/>
<path d="M456.293 69.5H423.707C421.662 69.5 420 67.8479 420 65.8135V45.1865C420 43.1521 421.662 41.5 423.707 41.5H456.293C458.338 41.5 460 43.1521 460 45.1865V65.8135C459.988 67.8479 458.338 69.5 456.293 69.5Z" fill="#0066B2"/>
<path d="M438.301 59.8831H436.218L437.52 51.9307H439.603L438.301 59.8831Z" fill="white"/>
<path d="M434.47 51.9307L432.486 57.4049L432.251 56.2213L431.544 52.6458C431.544 52.6458 431.457 51.9307 430.552 51.9307H427.278L427.241 52.0663C427.241 52.0663 428.246 52.2759 429.423 52.9787L431.234 59.8954H433.404L436.702 51.9307H434.47Z" fill="white"/>
<path d="M450.85 59.8831H452.759L451.097 51.9307H449.424C448.655 51.9307 448.456 52.5225 448.456 52.5225L445.344 59.8831H447.514L447.948 58.6995H450.602L450.85 59.8831ZM448.556 57.072L449.647 54.1006L450.267 57.072H448.556Z" fill="white"/>
<path d="M445.518 53.8417L445.815 52.1279C445.815 52.1279 444.898 51.7827 443.943 51.7827C442.914 51.7827 440.459 52.2266 440.459 54.4212C440.459 56.4802 443.335 56.5049 443.335 57.5775C443.335 58.6502 440.756 58.4652 439.901 57.7871L439.591 59.5749C439.591 59.5749 440.521 60.0187 441.947 60.0187C443.373 60.0187 445.518 59.2913 445.518 57.2939C445.518 55.2226 442.616 55.0377 442.616 54.1376C442.591 53.2376 444.625 53.3609 445.518 53.8417Z" fill="white"/>
<path d="M432.251 56.2213L431.544 52.6458C431.544 52.6458 431.457 51.9307 430.552 51.9307H427.278L427.241 52.0663C427.241 52.0663 428.816 52.3869 430.329 53.6075C431.767 54.7787 432.251 56.2213 432.251 56.2213Z" fill="#F9A533"/>
<path d="M506.293 69.5H473.707C471.662 69.5 470 67.8479 470 65.8135V45.1865C470 43.1521 471.662 41.5 473.707 41.5H506.293C508.339 41.5 510 43.1521 510 45.1865V65.8135C510 67.8479 508.339 69.5 506.293 69.5Z" fill="#36495D"/>
<path d="M493.36 49.5018H486.64V61.5108H493.36V49.5018Z" fill="#F16522"/>
<path d="M487.061 55.506C487.061 53.0649 488.214 50.9073 490 49.5017C488.698 48.4784 487.049 47.8743 485.251 47.8743C481.01 47.8743 477.576 51.2895 477.576 55.506C477.576 59.7226 481.01 63.1378 485.251 63.1378C487.036 63.1378 488.685 62.5337 490 61.5104C488.214 60.1048 487.061 57.9349 487.061 55.506Z" fill="#E41B24"/>
<path d="M502.424 55.5062C502.424 59.7228 498.989 63.1381 494.749 63.1381C492.963 63.1381 491.314 62.5339 490 61.5106C491.785 60.1174 492.926 57.9474 492.926 55.5062C492.926 53.065 491.785 50.9073 490 49.5018C491.302 48.4784 492.951 47.8743 494.749 47.8743C498.989 47.862 502.424 51.2895 502.424 55.5062ZM501.693 60.2283V59.9817H501.792V59.9324H501.544V59.9817H501.643V60.2283H501.693ZM502.188 60.2283V59.9324H502.114L502.027 60.142L501.94 59.9324H501.866V60.2283H501.916V60.0064L502.002 60.2037H502.064L502.151 60.0064V60.2283H502.188Z" fill="#F89E1C"/>
<path d="M556.293 69.5H523.707C521.662 69.5 520 67.8479 520 65.8135V45.1865C520 43.1521 521.662 41.5 523.707 41.5H556.293C558.338 41.5 560 43.1521 560 45.1865V65.8135C559.988 67.8479 558.338 69.5 556.293 69.5Z" fill="#ED1C24"/>
<path d="M540.039 52.3408C545.326 52.3408 549.729 54.3517 550.593 56.991C550.698 56.6768 550.761 56.3626 550.761 56.0275C550.761 52.9273 545.958 50.3927 540.018 50.3927C534.098 50.3927 529.274 52.9063 529.274 56.0275C529.274 56.3626 529.337 56.6768 529.443 56.991C530.349 54.3517 534.73 52.3408 540.039 52.3408ZM540.039 48.9892C545.326 48.9892 549.729 51.0001 550.593 53.6395C550.698 53.3253 550.761 53.0111 550.761 52.6759C550.761 49.5757 545.958 47.0411 540.018 47.0411C534.098 47.0411 529.274 49.5548 529.274 52.6759C529.274 53.0111 529.337 53.3253 529.443 53.6395C530.349 51.0001 534.73 48.9892 540.039 48.9892ZM544.442 62.4792L542.23 59.6932H541.176V63.8617H542.188V61.1386L544.357 63.8617H545.432V59.6932H544.442V62.4792ZM527.926 62.9819C527.715 63.1286 527.462 63.1914 527.189 63.1914C526.809 63.1914 526.472 63.0867 526.241 62.8562C525.988 62.6258 525.883 62.2488 525.883 61.7251C525.883 61.2224 526.009 60.8663 526.262 60.6568C526.515 60.4264 526.83 60.3216 527.231 60.3216C527.526 60.3216 527.757 60.3845 527.968 60.5102C528.158 60.6358 528.305 60.8034 528.368 61.0129L529.443 60.8244C529.316 60.4892 529.148 60.2378 528.895 60.0493C528.495 59.7561 527.947 59.6094 527.294 59.6094C526.536 59.6094 525.946 59.798 525.482 60.175C525.019 60.5521 524.787 61.0967 524.787 61.7879C524.787 62.4373 525.019 62.961 525.482 63.338C525.946 63.7151 526.515 63.9036 527.231 63.9036C527.8 63.9036 528.284 63.7989 528.663 63.5684C529.042 63.338 529.295 63.0029 529.464 62.542L528.41 62.2907C528.284 62.6049 528.137 62.8353 527.926 62.9819ZM551.225 59.6723V60.3845H552.826V63.8408H553.9V60.3845H555.48V59.6723H551.225ZM547.686 61.9974H550.382V61.2852H547.686V60.3635H550.572V59.6513H546.611V63.8198H550.677V63.1286H547.686V61.9974ZM539.323 62.3535C539.175 62.2278 538.986 62.1021 538.754 61.9974C539.217 61.9346 539.575 61.8089 539.807 61.6204C540.039 61.4109 540.165 61.1595 540.165 60.8453C540.165 60.5939 540.081 60.3845 539.933 60.1959C539.786 60.0074 539.575 59.8608 539.302 59.798C539.049 59.7142 538.627 59.6932 538.059 59.6932H535.783V63.8617H536.858V62.1231H537.069C537.321 62.1231 537.49 62.144 537.616 62.165C537.722 62.1859 537.848 62.2488 537.932 62.3326C538.038 62.4163 538.227 62.6258 538.501 62.94L539.28 63.8408H540.565L539.912 63.0238C539.681 62.7096 539.47 62.4792 539.323 62.3535ZM537.658 61.4318H536.858V60.3635H537.7C538.143 60.3635 538.396 60.3635 538.48 60.3845C538.648 60.4054 538.796 60.4683 538.88 60.5521C538.986 60.6358 539.028 60.7615 539.028 60.8872C539.028 61.0129 538.986 61.1176 538.922 61.2014C538.859 61.2852 538.754 61.348 538.627 61.369C538.501 61.4318 538.185 61.4318 537.658 61.4318ZM531.907 59.6723L529.822 63.8408H530.959L531.402 62.8981H533.551L534.014 63.8408H535.194L533.045 59.6723H531.907ZM531.739 62.1859L532.455 60.6358L533.192 62.1859H531.739Z" fill="white"/>
<path d="M6 1H584V-1H6V1ZM589 6V105H591V6H589ZM584 110H6.00001V112H584V110ZM1 105V6H-1V105H1ZM6.00001 110C3.23858 110 1 107.761 1 105H-1C-1 108.866 2.13402 112 6.00001 112V110ZM589 105C589 107.761 586.761 110 584 110V112C587.866 112 591 108.866 591 105H589ZM584 1C586.761 1 589 3.23858 589 6H591C591 2.134 587.866 -1 584 -1V1ZM6 -1C2.13401 -1 -1 2.13401 -1 6H1C1 3.23858 3.23858 1 6 1V-1Z" fill="#557CF1"/>
<defs>
<clipPath id="clip0">
<rect width="111" height="41" fill="white" transform="translate(30 40)"/>
</clipPath>
</defs>
</svg>
