<svg width="98" height="36" viewBox="0 0 98 36" fill="none" xmlns="http://www.w3.org/2000/svg">
<g clip-path="url(#clip0)">
<path d="M0 31.1932V28.9882C0 25.813 1.67003 24.1813 4.95099 24.1813C8.12849 24.1813 9.75419 25.666 9.79852 28.7383H6.73925C6.68014 27.4447 6.22199 26.7685 4.99533 26.7685C3.76866 26.7685 3.20706 27.4447 3.20706 28.9882V31.1785C3.20706 32.7072 3.76866 33.3834 4.99533 33.3834C6.22199 33.3834 6.69492 32.7072 6.73925 31.4137H9.79852C9.75419 34.4859 8.12849 35.9706 4.95099 35.9706C1.67003 36 0 34.3683 0 31.1932Z" fill="#292AFB"/>
<path d="M21.5479 28.2532V35.7354H18.326V28.5325C18.326 27.4741 17.9418 26.9596 17.0698 26.9596C16.2274 26.9596 15.5476 27.4594 15.0746 28.4443V35.7354H11.8528V19.9478H15.0746V25.3573C15.8579 24.5635 16.789 24.196 17.9861 24.196C20.3212 24.196 21.5479 25.5778 21.5479 28.2532Z" fill="#292AFB"/>
<path d="M27.0457 31.3108C27.0457 32.7807 27.6369 33.501 29.0261 33.501C30.1197 33.501 30.7405 33.0747 30.8144 32.2956H33.8736C33.7406 34.7358 32.0706 36.0147 29.0113 36.0147C25.5826 36.0147 23.8386 34.3977 23.8386 31.2079V29.0029C23.8386 25.8718 25.5826 24.196 28.8783 24.196C32.2036 24.196 33.9475 25.9012 33.9475 29.0323V31.0903H27.0457V31.3108ZM27.0457 28.8412H30.8883C30.8883 27.3271 30.3266 26.695 28.9818 26.695C27.6073 26.695 27.0457 27.3271 27.0457 28.8412Z" fill="#292AFB"/>
<path d="M35.8688 31.1932V28.9882C35.8688 25.813 37.5388 24.1813 40.8198 24.1813C43.9973 24.1813 45.623 25.666 45.6673 28.7383H42.6081C42.5489 27.4447 42.0908 26.7685 40.8641 26.7685C39.6375 26.7685 39.0759 27.4447 39.0759 28.9882V31.1785C39.0759 32.7072 39.6375 33.3834 40.8641 33.3834C42.0908 33.3834 42.5637 32.7072 42.6081 31.4137H45.6673C45.623 34.4859 43.9973 35.9706 40.8198 35.9706C37.5388 36 35.8688 34.3683 35.8688 31.1932Z" fill="#292AFB"/>
<path d="M52.1701 31.3696L50.9287 32.8248V35.7501H47.7068V19.9478H50.9287V28.8559L54.6678 24.4459H58.4217L54.4461 29.047L58.4956 35.7207H54.7565L52.1701 31.3696Z" fill="#292AFB"/>
<path d="M34.6866 4.52756C36.4897 4.52756 38.2927 4.70396 40.0662 5.05676V16.2434C40.0662 19.9771 37.8198 21.7411 33.3417 21.7411C31.9082 21.7558 30.4894 21.55 29.1297 21.1237V18.6394C30.4894 19.0657 31.9082 19.2715 33.3417 19.2568C35.6768 19.2568 36.8444 18.2866 36.8444 16.3316C35.8837 16.7432 34.8492 16.9637 33.7999 16.949C30.0312 16.949 28.1543 14.9057 28.1543 10.8338C28.1395 6.65904 30.2972 4.52756 34.6866 4.52756ZM91.6304 4.52756C95.8424 4.52756 98.0002 6.65905 98.0002 10.922C98.0002 15.185 95.8424 17.2283 91.6304 17.2283C87.4183 17.2283 85.2606 15.0968 85.2606 10.922C85.3493 6.65905 87.4183 4.52756 91.6304 4.52756ZM59.4416 4.61576L59.7963 6.48265C61.0525 5.23316 62.3974 4.61576 64.0083 4.61576C67.0528 4.61576 68.575 6.21805 68.575 9.31972V17.3018H65.3532V9.31972C65.3532 7.89383 64.6438 7.18824 63.2989 7.18824C62.22 7.18824 61.2298 7.62924 60.2544 8.42303V17.2136H57.0326V4.61576H59.4416ZM7.7887 0C11.38 0 13.0796 1.60229 13.0796 4.88036C13.0796 8.33483 10.6558 10.4663 5.80831 11.2748L5.36493 8.34953C8.32075 7.82033 9.75432 6.65904 9.75432 4.89506C9.75432 3.46917 9.03014 2.76358 7.59657 2.76358H3.20719V17.1401H-0.0146484L0.000130636 0H7.7887ZM82.9255 0V16.4198C81.0486 16.9049 79.1273 17.1842 77.1912 17.2136C73.0679 17.2136 70.9988 14.9939 70.9988 10.6427C70.9988 6.55615 73.0679 4.60106 77.1026 4.60106C78.0041 4.58636 78.9056 4.80686 79.7037 5.21846V0H82.9255ZM19.9814 4.61576C23.7501 4.61576 25.627 6.04165 25.627 8.77583V17.2136H23.7353L22.5678 16.0523C21.4889 16.7873 20.2031 17.1989 18.8878 17.2136C15.7546 17.2136 14.2176 15.8759 14.2176 13.3034C14.2176 10.8191 16.1093 9.56962 19.7745 9.56962C20.6465 9.56962 21.5185 9.65782 22.3756 9.83422V8.84933C22.3756 7.70274 21.5776 7.15884 19.8632 7.15884C18.2966 7.18824 16.73 7.39404 15.2078 7.77624V5.29196C16.7596 4.82156 18.3705 4.58636 19.9814 4.61576ZM48.239 4.61576C52.0077 4.61576 53.8846 6.04165 53.8846 8.77583V17.2136H51.9929L50.8254 16.0523C49.7465 16.7873 48.4607 17.1989 47.1454 17.2136C44.0122 17.2136 42.49 15.8759 42.49 13.3034C42.49 10.8191 44.3669 9.56962 48.0469 9.56962C48.9189 9.56962 49.7908 9.65782 50.648 9.83422V8.84933C50.648 7.70274 49.8352 7.15884 48.1356 7.15884C46.569 7.18824 45.0024 7.39404 43.4802 7.77624V5.32136C45.0172 4.82156 46.6133 4.58636 48.239 4.61576ZM19.8928 11.6276C18.3705 11.6276 17.5577 12.1568 17.5577 13.2299C17.5577 14.3765 18.1932 14.9204 19.5381 14.9204C20.6022 14.9204 21.6367 14.5823 22.4939 13.9502V11.8922C21.6367 11.7158 20.7647 11.6276 19.8928 11.6276ZM48.0469 11.6276C46.5247 11.6276 45.7118 12.1568 45.7118 13.2299C45.7118 14.3765 46.3473 14.9204 47.6774 14.9204C48.7415 14.9204 49.7908 14.5823 50.6332 13.9502V11.8922C49.7908 11.7158 48.9189 11.6276 48.0469 11.6276ZM91.6304 7.01184C89.5613 7.01184 88.4972 8.33483 88.4972 10.922C88.4972 13.5974 89.5761 14.9204 91.6304 14.9204C93.6847 14.9204 94.7635 13.5974 94.7635 10.922C94.7635 8.23193 93.6847 7.01184 91.6304 7.01184ZM77.206 7.18824C75.2404 7.18824 74.2502 8.33483 74.2502 10.5545C74.2502 13.2152 75.3291 14.5529 77.3833 14.5529C78.211 14.5676 79.0238 14.45 79.8071 14.2001V7.89383C79.009 7.42344 78.1075 7.18824 77.1912 7.18824H77.206ZM34.6127 7.18824C32.3663 7.18824 31.3022 8.42303 31.3022 10.8191C31.3022 13.127 32.2924 14.3618 34.1693 14.3618C35.1004 14.3471 36.0167 14.1413 36.8591 13.7444V7.52634C36.3862 7.26174 35.5734 7.17354 34.5979 7.17354H34.6127V7.18824Z" fill="#706F6F"/>
<path d="M69.3878 21.7706C69.8459 21.6824 70.112 21.8294 70.3632 22.1528C70.7475 22.6967 71.1169 23.1965 71.4569 23.7404C72.3436 24.9898 73.2008 26.254 74.0875 27.5035C74.1614 27.6358 74.2353 27.7534 74.2944 27.8857C74.3979 28.1944 74.2649 28.5031 74.0136 28.6942C73.053 29.3851 72.048 30.0907 71.043 30.7963C68.7375 32.4427 66.3876 34.0891 64.0969 35.7355C63.9787 35.8531 63.8013 35.9266 63.6683 35.956C63.3136 36.0736 63.0476 35.9266 62.7815 35.5444C61.7322 33.9862 60.6386 32.3986 59.5893 30.8551C59.3971 30.5611 59.205 30.3112 59.0129 30.0172C58.7616 29.6791 58.9242 29.2822 59.1755 29.0911C60.8898 27.8416 62.5599 26.6362 64.2742 25.3867C65.8113 24.2548 67.3778 23.1671 68.9149 22.0352C69.0774 21.9176 69.2548 21.8 69.3878 21.7706Z" fill="#E5FF00"/>
</g>
<defs>
<clipPath id="clip0">
<rect width="98" height="36" fill="white"/>
</clipPath>
</defs>
</svg>
